<?xml version="1.0" encoding="UTF-8"?>
<svg id="Camada_1" data-name="Camada 1" xmlns="http://www.w3.org/2000/svg" viewBox="0 0 71.71 67.97">
  <defs>
    <style>
      .cls-1 {
        fill: #fab314;
      }

      .cls-1, .cls-2 {
        stroke-width: 0px;
      }

      .cls-2 {
        fill: #000;
      }
    </style>
  </defs>
  <rect class="cls-2" width="71.71" height="67.97"/>
  <path class="cls-1" d="M21.2,48.56v-29.15h13.24c3.16,0,5.95.6,8.37,1.81,2.41,1.21,4.3,2.9,5.66,5.08,1.36,2.18,2.04,4.74,2.04,7.68s-.68,5.5-2.04,7.68c-1.36,2.18-3.25,3.87-5.66,5.08s-5.2,1.81-8.37,1.81h-13.24ZM27.99,43.06h6.12c1.94,0,3.63-.37,5.06-1.1,1.43-.73,2.54-1.79,3.33-3.16.79-1.37,1.19-2.98,1.19-4.81s-.4-3.47-1.19-4.83c-.79-1.36-1.9-2.41-3.33-3.14-1.43-.74-3.12-1.1-5.06-1.1h-6.12v18.15Z"/>
</svg>